<?xml version="1.0" encoding="UTF-8"?>
<svg width="88px" height="72px" viewBox="0 0 88 72" version="1.1" xmlns="http://www.w3.org/2000/svg" xmlns:xlink="http://www.w3.org/1999/xlink">
    <title>LU_Alumni_blue</title>
    <g id="Standalone-app" stroke="none" stroke-width="1" fill="none" fill-rule="evenodd">
        <g id="Starting-page-" transform="translate(-676.000000, -112.000000)" fill="#1B2C56">
            <g id="LU_Alumni_blue" transform="translate(676.000000, 112.000000)">
                <path d="M66.6460039,31.9029371 C64.7562608,40.389227 60.4527122,44.4750494 51.4771214,44.4750494 C46.6485939,44.4750494 38.722962,42.2743569 38.722962,36.1980654 C38.722962,33.9460777 41.1376847,32.9508419 43.0792832,33.0021383 L43.9713814,33.0021383 C43.9186082,32.1122432 43.9713814,31.1692204 44.0764691,30.2784096 L18.1473405,30.2784096 L22.975868,7.54326734 C23.0814146,7.12465498 23.133729,6.75733864 23.133729,6.33872615 C23.133729,3.56232743 20.7722386,2.61884651 18.4098303,2.35732829 L18.93481,0 L33.94629,0 L29.1168446,22.4736239 L40.1400399,22.4736239 C40.3502152,21.4257189 40.7173339,20.3256018 40.7173339,19.2776968 C40.7173339,16.6579343 38.2502968,15.5060631 35.9411207,15.2962989 L36.5179558,12.9389706 L51.686838,12.9389706 L48.0128985,29.8593391 C47.8554964,30.5403857 47.7504086,31.2209745 47.7504086,31.9029371 C47.7504086,34.8886426 49.5878374,36.4078292 52.4743077,36.4078292 C56.0436186,36.4078292 57.3032933,33.5270063 57.9333617,30.4881737 C58.5106552,27.659105 60.1897645,21.9487554 60.1897645,19.3299088 C60.1897645,16.6579343 57.7755004,15.5060631 55.4658654,15.2962989 L56.0436186,12.9389706 L70.7407529,12.9389706 L66.6460039,31.9029371 Z M8.84976642,65.4060706 C8.94713549,65.4060706 8.94713549,65.3484358 8.92790209,65.2708046 L7.07187934,60.110696 C6.97451026,59.8236965 6.87593911,59.8236965 6.77857004,60.110696 L5.05958523,65.2708046 C5.02111844,65.3672556 5.05958523,65.4060706 5.11848751,65.4060706 L8.84976642,65.4060706 Z M6.81823892,57.7605941 C7.05264594,57.1289604 7.13078161,57.0148664 7.24738408,57.0148664 C7.36518863,57.0148664 7.4433243,57.1101406 7.67773132,57.7029594 C7.96983854,58.4286919 11.0375653,66.3235283 12.2288336,69.2288094 C12.9320547,70.9296332 13.4982378,71.2354525 13.9093517,71.3495465 C14.2014589,71.4448208 14.4947682,71.4648172 14.6907084,71.4648172 C14.8073109,71.4648172 14.8854465,71.4848125 14.8854465,71.5800867 C14.8854465,71.6941807 14.7099418,71.732997 14.4947682,71.732997 C14.2014589,71.732997 12.7757834,71.732997 11.4282436,71.6941807 C11.0567987,71.675361 10.8428271,71.675361 10.8428271,71.5600915 C10.8428271,71.4848125 10.9005273,71.4448208 10.978663,71.4271777 C11.0952655,71.3883615 11.21307,71.2166327 11.0952655,70.909638 L9.27891158,66.2082576 C9.23924271,66.1318031 9.20077591,66.0941636 9.10340684,66.0941636 L4.90331389,66.0941636 C4.80594482,66.0941636 4.74704254,66.1506229 4.70857574,66.2458971 L3.53533869,69.6287262 C3.35983394,70.107451 3.26246487,70.5661792 3.26246487,70.909638 C3.26246487,71.2919118 3.67237664,71.4648172 4.00535481,71.4648172 L4.20009283,71.4648172 C4.33713078,71.4648172 4.39603305,71.5024567 4.39603305,71.5800867 C4.39603305,71.6941807 4.2782285,71.732997 4.10272376,71.732997 C3.63390984,71.732997 2.79365083,71.675361 2.57847721,71.675361 C2.36330359,71.675361 1.28983965,71.732997 0.371444967,71.732997 C0.11780455,71.732997 0,71.6941807 0,71.5800867 C0,71.5024567 0.0781356731,71.4648172 0.175504745,71.4648172 C0.312542692,71.4648172 0.586618588,71.4448208 0.742889935,71.4271777 C1.64084914,71.311907 2.0315275,70.584999 2.38373907,69.6287262 L6.81823892,57.7605941 Z M19.3199465,66.2270774 C19.3199465,69.0382597 19.3980822,70.2615367 19.7490915,70.6038187 C20.0616342,70.909638 20.5701171,71.0449039 22.0931617,71.0449039 C23.129361,71.0449039 23.9888534,71.0249075 24.4576674,70.470905 C24.7113078,70.1650857 24.906046,69.686361 24.9649482,69.3240837 C24.9841816,69.1711734 25.0238505,69.0758992 25.140453,69.0758992 C25.2390241,69.0758992 25.2582575,69.1511782 25.2582575,69.3617232 C25.2582575,69.5734436 25.1212196,70.7190895 24.9649482,71.2742675 C24.8279103,71.7130005 24.769008,71.789455 23.7340109,71.789455 C22.3275688,71.789455 21.311805,71.7518167 20.4919815,71.732997 C19.6709559,71.6941807 19.065104,71.675361 18.4989209,71.675361 C18.4207852,71.675361 18.0890091,71.6941807 17.6983308,71.6941807 C17.3076524,71.7130005 16.8785072,71.732997 16.5839959,71.732997 C16.3700243,71.732997 16.2726552,71.6941807 16.2726552,71.5800867 C16.2726552,71.522452 16.311122,71.4648172 16.4289266,71.4648172 C16.6044313,71.4648172 16.8388384,71.4271777 17.0143431,71.3883615 C17.4050215,71.311907 17.5023905,70.8919937 17.5805262,70.3368145 C17.6778953,69.533452 17.6778953,68.0243522 17.6778953,66.1894379 L17.6778953,62.8242518 C17.6778953,59.8425162 17.6778953,59.3085089 17.6394285,58.6968717 C17.6009617,58.0464182 17.4446903,57.7405989 16.7991695,57.6076851 C16.6428981,57.5676934 16.311122,57.5500492 16.1356173,57.5500492 C16.0574816,57.5500492 15.979346,57.5112342 15.979346,57.4347797 C15.979346,57.3206856 16.076715,57.2818694 16.2918886,57.2818694 C17.1706144,57.2818694 18.4015518,57.3395054 18.4989209,57.3395054 C18.59629,57.3395054 20.0231674,57.2818694 20.6085839,57.2818694 C20.8237576,57.2818694 20.9211266,57.3206856 20.9211266,57.4347797 C20.9211266,57.5112342 20.842991,57.5500492 20.7648553,57.5500492 C20.6290194,57.5500492 20.3549435,57.5676934 20.1205365,57.6076851 C19.5543534,57.7029594 19.3980822,58.0275984 19.3584132,58.6968717 C19.3199465,59.3085089 19.3199465,59.8425162 19.3199465,62.8242518 L19.3199465,66.2270774 Z M28.1096084,62.8242518 C28.1096084,59.8425162 28.1096084,59.3085089 28.0711416,58.6968717 C28.0314728,58.0464182 27.8752014,57.7405989 27.2308826,57.6076851 C27.0746113,57.5676934 26.7428353,57.5500492 26.5673306,57.5500492 C26.4879928,57.5500492 26.4098572,57.5112342 26.4098572,57.4347797 C26.4098572,57.3206856 26.5084283,57.2818694 26.7223998,57.2818694 C27.6011255,57.2818694 28.7935961,57.3395054 28.9691008,57.3395054 C29.1458077,57.3395054 30.3178428,57.2818694 30.9032593,57.2818694 C31.1184329,57.2818694 31.215802,57.3206856 31.215802,57.4347797 C31.215802,57.5112342 31.1376663,57.5500492 31.0595306,57.5500492 C30.9224927,57.5500492 30.8058902,57.5676934 30.5714832,57.6076851 C30.0437669,57.6829629 29.8874955,58.0275984 29.8490287,58.6968717 C29.8093599,59.3085089 29.8093599,59.8425162 29.8093599,62.8242518 L29.8093599,65.5013448 C29.8093599,68.2525402 30.4344452,69.4381777 31.2747042,70.221545 C32.2315657,71.1013632 33.1102915,71.2742675 34.2246264,71.2742675 C35.4158948,71.2742675 36.5879299,70.7190895 37.291151,69.896906 C38.1903122,68.8077194 38.4235172,67.1821734 38.4235172,65.2131699 L38.4235172,62.8242518 C38.4235172,59.8425162 38.4235172,59.3085089 38.3850504,58.6968717 C38.3453815,58.0464182 38.1903122,57.7405989 37.5447914,57.6076851 C37.38852,57.5676934 37.0567439,57.5500492 36.8812392,57.5500492 C36.8031035,57.5500492 36.7249678,57.5112342 36.7249678,57.4347797 C36.7249678,57.3206856 36.8223369,57.2818694 37.0375105,57.2818694 C37.9162363,57.2818694 38.9909024,57.3395054 39.1075048,57.3395054 C39.2445428,57.3395054 40.1629375,57.2818694 40.748354,57.2818694 C40.9635276,57.2818694 41.0608967,57.3206856 41.0608967,57.4347797 C41.0608967,57.5112342 40.982761,57.5500492 40.9046253,57.5500492 C40.7687894,57.5500492 40.6509849,57.5676934 40.4165779,57.6076851 C39.8888616,57.7206025 39.7325902,58.0275984 39.6941234,58.6968717 C39.6544545,59.3085089 39.6544545,59.8425162 39.6544545,62.8242518 L39.6544545,64.8697111 C39.6544545,66.9339901 39.4200475,69.2288094 37.8573341,70.584999 C36.4508919,71.8082748 34.9867496,72 33.832746,72 C33.1691938,72 31.1965686,71.9235455 29.8093599,70.6426337 C28.8524984,69.7439969 28.1096084,68.4054504 28.1096084,65.6154389 L28.1096084,62.8242518 Z M59.988963,69.2852675 C60.0670981,69.9733605 60.204136,71.0449039 61.0443953,71.311907 C61.6105778,71.4848125 62.1190615,71.4848125 62.3137994,71.4848125 C62.4111683,71.4848125 62.470071,71.5024567 62.470071,71.5800867 C62.470071,71.6941807 62.2945656,71.7518167 62.0601588,71.7518167 C61.6310142,71.7518167 59.5213508,71.732997 58.7976941,71.675361 C58.3481131,71.636546 58.2507441,71.5800867 58.2507441,71.4848125 C58.2507441,71.4071813 58.290413,71.369543 58.387782,71.3495465 C58.4851509,71.3307267 58.5043847,71.0060877 58.4659184,70.6614535 L57.52829,60.7423297 L57.4693874,60.7423297 L52.6838781,70.6814499 C52.2727646,71.522452 52.2150645,71.6941807 52.0383578,71.6941807 C51.9025216,71.6941807 51.8039504,71.5024567 51.4337075,70.8143637 C50.9252246,69.8780862 49.2459088,66.5717116 49.1473377,66.3811631 C48.9718329,66.0365288 46.7840341,61.448067 46.5688605,60.9328795 L46.4907248,60.9328795 L45.709368,69.8016317 C45.6901347,70.107451 45.6901347,70.4520852 45.6901347,70.7767242 C45.6901347,71.062547 45.9053083,71.311907 46.1986176,71.369543 C46.5303937,71.4448208 46.823703,71.4648172 46.9403054,71.4648172 C47.0184411,71.4648172 47.0965768,71.5024567 47.0965768,71.5600915 C47.0965768,71.6941807 46.9787722,71.732997 46.7455673,71.732997 C46.0219107,71.732997 45.0842827,71.675361 44.9280113,71.675361 C44.7525066,71.675361 43.8148785,71.732997 43.2871622,71.732997 C43.092424,71.732997 42.9553861,71.6941807 42.9553861,71.5600915 C42.9553861,71.5024567 43.0527552,71.4648172 43.1501242,71.4648172 C43.3063956,71.4648172 43.4434335,71.4648172 43.7367428,71.4071813 C44.3810616,71.2919118 44.4399639,70.5473595 44.5180996,69.8204515 L45.9245417,57.3583251 C45.9437751,57.1477802 46.0219107,57.0148664 46.1397153,57.0148664 C46.2575198,57.0148664 46.3344534,57.0901454 46.4330246,57.3006892 L52.4098024,69.3240837 L58.1533752,57.3206856 C58.2315116,57.1477802 58.3096468,57.0148664 58.4466846,57.0148664 C58.5825211,57.0148664 58.6414225,57.1677754 58.67989,57.5300539 L59.988963,69.2852675 Z M66.4934573,69.1323584 C66.5331262,70.7002697 66.7278641,71.1966375 67.2555803,71.3495465 C67.6270249,71.4448208 68.0561708,71.4648172 68.2328775,71.4648172 C68.3302465,71.4648172 68.3891479,71.5024567 68.3891479,71.5800867 C68.3891479,71.6941807 68.2713438,71.732997 68.036937,71.732997 C66.9238046,71.732997 66.1424479,71.675361 65.9669425,71.675361 C65.7902358,71.675361 64.9704128,71.732997 64.0904845,71.732997 C63.8957466,71.732997 63.7791439,71.7130005 63.7791439,71.5800867 C63.7791439,71.5024567 63.836844,71.4648172 63.9354155,71.4648172 C64.0904845,71.4648172 64.4426954,71.4448208 64.7360048,71.3495465 C65.2240521,71.2166327 65.3214222,70.6614535 65.3214222,68.9229902 L65.3406548,57.9699624 C65.3406548,57.2254114 65.3995574,57.0148664 65.555829,57.0148664 C65.7121006,57.0148664 66.0438763,57.4347797 66.2398168,57.6253282 C66.5331262,57.9511427 69.4433789,61.0281537 72.4510018,64.1827948 C74.3851598,66.2082576 76.5152584,68.5407164 77.1403435,69.1711734 L76.9251705,59.4614192 C76.9059367,58.2181469 76.7688989,57.7982337 76.1630463,57.6453246 C75.8120368,57.5676934 75.362457,57.5500492 75.2061854,57.5500492 C75.0691476,57.5500492 75.0499139,57.4924144 75.0499139,57.4159599 C75.0499139,57.3006892 75.2061854,57.2818694 75.4405922,57.2818694 C76.3193179,57.2818694 77.2581476,57.3395054 77.4721192,57.3395054 C77.6872935,57.3395054 78.3316124,57.2818694 79.1334042,57.2818694 C79.3473759,57.2818694 79.4844137,57.3006892 79.4844137,57.4159599 C79.4844137,57.4924144 79.4062785,57.5500492 79.2692407,57.5500492 C79.1718705,57.5500492 79.0348327,57.5500492 78.8004259,57.6076851 C78.156107,57.7405989 78.0779718,58.1605122 78.0779718,59.3085089 L78.038303,70.5097199 C78.038303,71.7706365 77.9998354,71.8659107 77.8627976,71.8659107 C77.7065272,71.8659107 77.4721192,71.6553658 76.4371232,70.6426337 C76.221949,70.4520852 73.4090652,67.6420784 71.3378681,65.4625299 C69.0719343,63.0736118 66.8649019,60.6646997 66.2398168,59.9766067 L66.4934573,69.1323584 Z M86.1055108,66.1894379 C86.1055108,68.0243522 86.1055108,69.533452 86.2028798,70.3368145 C86.2617812,70.8919937 86.3795865,71.311907 86.9650027,71.3883615 C87.2390784,71.4271777 87.6682243,71.4648172 87.844931,71.4648172 C87.9615337,71.4648172 88,71.522452 88,71.5800867 C88,71.675361 87.9038324,71.732997 87.6874568,71.732997 C86.6139932,71.732997 85.3830555,71.675361 85.2856866,71.675361 C85.1871163,71.675361 83.9573811,71.732997 83.3707623,71.732997 C83.155588,71.732997 83.0582191,71.6941807 83.0582191,71.5800867 C83.0582191,71.522452 83.0966866,71.4648172 83.2144907,71.4648172 C83.3911974,71.4648172 83.6244028,71.4271777 83.8011095,71.3883615 C84.1917879,71.311907 84.2891568,70.8919937 84.367292,70.3368145 C84.4646609,69.533452 84.4646609,68.0243522 84.4646609,66.1894379 L84.4646609,62.8242518 C84.4646609,59.8425162 84.4646609,59.3085089 84.4249921,58.6968717 C84.3865258,58.0464182 84.1917879,57.7206025 83.7614406,57.6253282 C83.547469,57.5676934 83.2926259,57.5500492 83.155588,57.5500492 C83.0774528,57.5500492 82.9993164,57.5112342 82.9993164,57.4347797 C82.9993164,57.3206856 83.0966866,57.2818694 83.3118596,57.2818694 C83.9573811,57.2818694 85.1871163,57.3395054 85.2856866,57.3395054 C85.3830555,57.3395054 86.6139932,57.2818694 87.1994095,57.2818694 C87.4145837,57.2818694 87.5119527,57.3206856 87.5119527,57.4347797 C87.5119527,57.5112342 87.4338163,57.5500492 87.3556811,57.5500492 C87.2198458,57.5500492 87.1020406,57.5676934 86.8676338,57.6076851 C86.3399176,57.7029594 86.183646,58.0275984 86.1451797,58.6968717 C86.1055108,59.3085089 86.1055108,59.8425162 86.1055108,62.8242518 L86.1055108,66.1894379 Z" id="Shape"></path>
            </g>
        </g>
    </g>
</svg>