<?xml version="1.0" encoding="UTF-8"?>
<svg width="40px" height="40px" viewBox="0 0 40 40" version="1.1" xmlns="http://www.w3.org/2000/svg" xmlns:xlink="http://www.w3.org/1999/xlink">
    <title>Checkmark</title>
    <g id="Standalone-app" stroke="none" stroke-width="1" fill="none" fill-rule="evenodd">
        <g id="Success-Copy" transform="translate(-700.000000, -112.000000)" fill="#00854E">
            <g id="checkbox-check-selected" transform="translate(700.000000, 112.000000)">
                <path d="M20,0 C31.04569,0 40,8.954305 40,20 C40,31.04569 31.04569,40 20,40 C8.954305,40 0,31.04569 0,20 C0,8.954305 8.954305,0 20,0 Z M26.2294885,11.8944686 L17.3436108,22.7412433 L14.3860545,19.4054368 C13.7832557,18.7281888 12.678525,18.6129126 11.9184222,19.1484668 C11.1559178,19.6828203 11.0274328,20.6674716 11.62783,21.3435188 L17.4552846,27.9166667 L29.0693669,13.7352862 C29.6421458,13.0364239 29.4704322,12.0577766 28.6851128,11.5486398 C27.9021949,11.0407038 26.8022673,11.1968071 26.2294885,11.8944686 Z"></path>
            </g>
        </g>
    </g>
</svg>