<?xml version="1.0" encoding="UTF-8"?>
<svg width="294px" height="21px" viewBox="0 0 294 21" version="1.1" xmlns="http://www.w3.org/2000/svg" xmlns:xlink="http://www.w3.org/1999/xlink">
    <title>Wordmark</title>
    <g id="Symbols" stroke="none" stroke-width="1" fill="none" fill-rule="evenodd">
        <g id="Header" transform="translate(-24.000000, -26.000000)" fill="#FFFFFE">
            <path d="M32.0996553,26.4429498 C32.4833671,26.4429498 32.6773083,26.4949454 32.6773083,26.6785754 C32.6773083,26.8589145 32.5132576,26.9115683 32.1830709,26.9115683 C31.8786039,26.9115683 31.4413671,26.937237 31.1111803,26.9885744 C30.3701717,27.1175761 30.1491204,27.5605259 30.0949002,28.4707778 C30.054106,29.0902493 30.0436161,29.6508818 30.0409187,31.5184451 L30.0400195,33.0369577 C30.040008,33.1347845 30.0400003,33.2350108 30.0399952,33.3377144 L30.039985,38.5579222 C30.039985,38.6726484 30.039985,38.7855543 30.0400086,38.8966481 L30.0406229,39.5415339 C30.0461519,42.2423927 30.0995983,43.7296111 30.6162478,44.1497518 C31.0847654,44.5393896 31.7993591,44.7203869 33.9375791,44.7203869 C35.3952668,44.7203869 36.4636817,44.6953764 37.1525556,43.9917905 C37.4813521,43.6554646 37.8101486,42.9255518 37.865759,42.4319228 C37.8928691,42.1982717 37.9477843,42.0403104 38.1688357,42.0403104 C38.3606916,42.0403104 38.389887,42.1732612 38.389887,42.4839184 C38.389887,42.7702232 38.1966409,44.7203869 37.9748944,45.4739939 C37.8101486,46.0459454 37.6739031,46.1742889 36.2468011,46.1742889 C34.268461,46.1742889 32.8406639,46.1242679 31.6054178,46.0972828 C30.3701717,46.0459454 29.3816968,46.0196185 28.2541959,46.0196185 L28.2541959,46.0196185 L28.0109976,46.0199074 C27.6813572,46.0209186 27.2021552,46.0254689 26.6901533,46.0459454 C26.0596703,46.0459454 25.3450766,46.0972828 24.7952288,46.0972828 C24.4379319,46.0972828 24.2481614,46.0196185 24.2481614,45.8386212 C24.2481614,45.7089613 24.3552115,45.6286643 24.684008,45.6286643 C25.0955249,45.6286643 25.4264068,45.5773269 25.6738731,45.5253313 C26.2230259,45.4219983 26.3613568,44.850705 26.4725776,44.0951235 C26.5905952,43.1262943 26.6037083,41.3935305 26.6051653,39.3415216 L26.6050883,32.2192073 C26.6050451,32.1350786 26.6049947,32.0531164 26.6049359,31.9732429 L26.6041476,31.3086793 C26.6015082,29.8117904 26.5930619,29.2130231 26.5660337,28.6849582 L26.5581921,28.5420719 L26.5581921,28.5420719 L26.5539078,28.4707778 C26.4989925,27.5861946 26.2786363,27.1722044 25.3714916,26.9885744 C25.1518305,26.937237 24.8244242,26.9115683 24.4657371,26.9115683 C24.1626604,26.9115683 24,26.8589145 24,26.6785754 C24,26.4949454 24.1911608,26.4429498 24.6033729,26.4429498 C25.8942294,26.4429498 27.624408,26.5206141 28.3654167,26.5206141 C29.0237048,26.5206141 31.0298501,26.4429498 32.0996553,26.4429498 Z M58.5333654,26.4429498 C63.5035453,26.4429498 64.3801042,28.965065 64.3801042,30.3419609 C64.3801042,32.4731219 63.0885526,33.7493174 61.5815107,34.8919041 C63.8309515,35.622475 66.5788006,37.466673 66.5788006,40.5094023 C66.5788006,43.2908373 64.3001643,46.1742889 59.247264,46.1742889 C58.9177724,46.1742889 58.1204582,46.1242679 57.3238392,46.0972828 C56.5021955,46.0459454 55.676381,46.0196185 55.264864,46.0196185 L55.264864,46.0196185 L55.0214254,46.0199074 C54.6913045,46.0209186 54.2112013,46.0254689 53.7008214,46.0459454 C53.0689482,46.0459454 52.3550496,46.0972828 51.8045066,46.0972828 C51.4492952,46.0972828 51.2574393,46.0196185 51.2574393,45.8386212 C51.2574393,45.7083031 51.3644893,45.6286643 51.6946761,45.6286643 C52.1061931,45.6286643 52.4363798,45.5773269 52.6845413,45.5253313 C53.233694,45.4219983 53.3692444,44.850705 53.4804652,44.0951235 C53.6040438,43.1262943 53.6177748,41.3935305 53.6193005,39.3415216 L53.6190296,31.9732429 C53.6189637,31.8933694 53.6188883,31.8155846 53.6188022,31.7398109 L53.6181455,31.3086793 C53.6147813,29.6076692 53.6030067,29.0664235 53.5617954,28.4707778 C53.5096606,27.5861946 53.2858287,27.1722044 52.3821597,26.9885744 C52.1624986,26.937237 51.6946761,26.9115683 51.3109643,26.9115683 C51.009973,26.9115683 50.8438369,26.8589145 50.8438369,26.6785754 C50.8438369,26.4949454 51.0363879,26.4429498 51.4492952,26.4429498 C52.9028121,26.4429498 54.6329908,26.5206141 55.1821435,26.5206141 C56.5279153,26.5206141 57.5991107,26.4429498 58.5333654,26.4429498 Z M47.7122761,26.4429498 C48.0681826,26.4429498 48.289234,26.4949454 48.289234,26.6496158 C48.289234,26.8589145 48.123793,26.9115683 47.8492167,26.9115683 C47.5753354,26.9115683 47.3528938,26.937237 47.0261827,26.9885744 C46.2837838,27.1175761 46.0662081,27.5605259 46.0105977,28.4707778 C46.0090088,28.4946036 46.0074654,28.5183424 46.005966,28.5420719 L45.9974886,28.6849582 C45.9669408,29.237026 45.9583492,29.8663699 45.9559328,31.5184451 L45.9550223,33.0369577 C45.9550107,33.1347845 45.9550029,33.2350108 45.9549977,33.3377144 L45.9549873,38.5579222 C45.9549873,38.6907344 45.9549873,38.8222449 45.9550035,38.9523857 L45.9554251,39.7162527 C45.9577601,41.7065097 45.9725485,43.3114138 46.0662081,44.2530848 C46.1475383,44.954038 46.3386991,45.4219983 47.1638185,45.5253313 C47.5475302,45.5773269 48.1515982,45.6286643 48.561725,45.6286643 C48.8654968,45.6286643 49.0031325,45.7089613 49.0031325,45.8386212 C49.0031325,46.0196185 48.7806909,46.0972828 48.4803948,46.0972828 C46.6702761,46.0972828 44.9380121,46.0196185 44.1970034,46.0196185 C43.5665205,46.0196185 41.8370369,46.0972828 40.7373412,46.0972828 C40.3821297,46.0972828 40.1867982,46.0196185 40.1867982,45.8386212 C40.1867982,45.7089613 40.2994093,45.6286643 40.6282058,45.6286643 C41.0404179,45.6286643 41.3699095,45.5773269 41.6159856,45.5253313 C42.1651383,45.4219983 42.3305793,44.9797067 42.4119095,44.2267579 C42.5356792,43.2497881 42.5487076,41.5030142 42.550079,39.3386008 L42.5500802,32.4781704 C42.5500482,32.3896311 42.5500098,32.303336 42.5499637,32.2192073 L42.5493066,31.5184451 C42.5492029,31.4466158 42.5490876,31.3767197 42.5489595,31.3086793 L42.5480271,30.9220827 C42.543785,29.5207217 42.5314123,29.0187718 42.4953251,28.4707778 C42.4397147,27.5861946 42.1651383,27.1445612 41.5610703,27.0149013 C41.2586887,26.937237 40.9034773,26.9115683 40.5746808,26.9115683 C40.2994093,26.9115683 40.1332732,26.8589145 40.1332732,26.6496158 C40.1332732,26.4949454 40.3522392,26.4429498 40.7922565,26.4429498 C41.8370369,26.4429498 43.5665205,26.5206141 44.3617492,26.5206141 C45.0485377,26.5206141 46.6702761,26.4429498 47.7122761,26.4429498 Z M56.9137124,28.0028175 C56.9137124,27.7165126 56.9672375,27.6125215 57.1604836,27.5605259 C57.43506,27.5091885 57.6790506,27.5091885 58.0648478,27.5091885 C60.4268997,27.5091885 61.5001805,29.7956781 61.5001805,31.5391758 C61.5001805,32.8120805 61.0844927,33.7493174 60.3726795,34.294942 C59.9055522,34.6858962 59.300789,34.7879129 58.3950346,34.7879129 C57.7659419,34.7879129 57.3530346,34.7629023 57.1048732,34.7109068 C56.9950427,34.6858962 56.9137124,34.6332425 56.9137124,34.4259183 L56.9137124,28.0028175 L56.9137124,28.0028175 Z M80.3430706,26.2329929 C80.4779258,26.2329929 80.5071213,26.3396168 80.5071213,26.4699348 C80.5071213,26.6496158 80.3687904,26.9629057 80.2853748,28.1581461 C80.2582647,28.4194404 80.2040446,29.562027 80.1505196,29.8759751 C80.120629,30.0056349 80.0677991,30.1616217 79.8738578,30.1616217 C79.682697,30.1616217 79.6284769,30.0319618 79.6284769,29.7956781 C79.6284769,29.6140226 79.5999766,29.1730473 79.4644262,28.861732 C79.2690947,28.3937717 78.9952134,28.0811399 77.6237218,27.9258113 C77.4135145,27.9021172 76.713449,27.8788228 75.9570499,27.8603665 L75.4491955,27.8488278 C74.6891678,27.8327409 73.9691451,27.8224783 73.722652,27.8224783 C73.5857114,27.8224783 73.5321864,27.9001426 73.5321864,28.0811399 L73.5321864,28.0811399 L73.5321864,34.6575948 C73.5321864,34.8405666 73.5586013,34.9438997 73.722652,34.9438997 L73.722652,34.9438997 L74.5753811,34.9430872 C75.7483479,34.9406499 77.6437068,34.9309008 78.116569,34.8919041 C78.7769426,34.8405666 79.190545,34.7629023 79.4352307,34.5022662 C79.6284769,34.294942 79.7369172,34.1652822 79.8738578,34.1652822 C79.9836883,34.1652822 80.0677991,34.2172777 80.0677991,34.3719482 C80.0677991,34.5272768 79.9572734,34.9438997 79.8460526,36.2720908 C79.8189425,36.7913885 79.7369172,37.8306422 79.7369172,38.0122976 C79.7369172,38.22028 79.7369172,38.507243 79.490146,38.507243 C79.297595,38.507243 79.2419846,38.4025937 79.2419846,38.2742501 C79.2155696,38.0122976 79.2155696,37.6746554 79.1328492,37.3370131 C78.9952134,36.8177154 78.6101114,36.4267612 77.5959166,36.3227701 C77.0731788,36.2720908 74.3559155,36.2457639 73.6948468,36.2457639 C73.5586013,36.2457639 73.5321864,36.3484388 73.5321864,36.5050837 L73.5321864,36.5050837 L73.5321864,38.5579222 C73.5321864,39.4431636 73.5043812,41.8336444 73.5321864,42.5905423 C73.5857114,44.3827447 74.0250336,44.7736989 76.8277979,44.7736989 C77.5396111,44.7736989 78.6949172,44.7736989 79.4067304,44.4597508 C80.120629,44.1497518 80.4529011,43.6047853 80.6433668,42.5372303 C80.6996723,42.2502673 80.7531973,42.1462761 80.9457483,42.1462761 C81.1661045,42.1462761 81.1661045,42.3542585 81.1661045,42.6155528 C81.1661045,43.213173 80.9457483,44.9797067 80.8067223,45.4996626 C80.6141713,46.1742889 80.3687904,46.1742889 79.3254002,46.1742889 C77.2650347,46.1742889 75.7566025,46.1242679 74.5755766,46.0972828 C73.3952458,46.0459454 72.5423212,46.0196185 71.7206775,46.0196185 L71.7206775,46.0196185 L71.4760871,46.0199074 C71.1452986,46.0209186 70.6663969,46.0254689 70.1538544,46.0459454 C69.5219812,46.0459454 68.8087778,46.0972828 68.259625,46.0972828 C67.9030233,46.0972828 67.7104723,46.0196185 67.7104723,45.8386212 C67.7104723,45.7089613 67.8196077,45.6286643 68.1497945,45.6286643 C68.5613115,45.6286643 68.890108,45.5773269 69.1396597,45.5253313 C69.6853367,45.4219983 69.8236676,44.850705 69.932803,44.0951235 C70.0569996,43.1262943 70.0707992,41.3935305 70.0723325,39.3415216 L70.072057,31.9732429 C70.0719903,31.8933694 70.0719141,31.8155846 70.0718269,31.7398109 L70.0711623,31.3086793 C70.0677576,29.6076692 70.0558411,29.0664235 70.0141333,28.4707778 C69.9633888,27.5868528 69.740252,27.1722044 68.8379732,26.9879162 C68.6169219,26.937237 68.1497945,26.9115683 67.7639973,26.9115683 C67.4623109,26.9115683 67.297565,26.8589145 67.297565,26.6785754 C67.297565,26.4949454 67.4894209,26.4429498 67.9030233,26.4429498 C68.6440319,26.4429498 69.440651,26.4699348 70.1267443,26.4699348 C70.8399477,26.4949454 71.4704307,26.5206141 71.8562279,26.5206141 L71.8562279,26.5206141 L73.2880928,26.5201729 C73.3723082,26.5201178 73.4587391,26.5200557 73.5470653,26.5199859 L74.3845288,26.5191252 C76.2240381,26.5167678 78.4009893,26.5106778 78.7192468,26.4949454 C79.2419846,26.4429498 79.682697,26.3896378 79.9037484,26.3396168 C80.0392987,26.3139481 80.2040446,26.2329929 80.3430706,26.2329929 Z M90.7790579,26.4429498 C92.5106269,26.4429498 94.3492458,26.5976202 95.8347387,27.5605259 C96.6021623,28.0548131 97.6997726,29.3816879 97.6997726,31.1225529 C97.6997726,33.0483642 96.8468481,34.8155561 94.0767548,36.9467171 C96.5208321,39.8604447 98.4129761,42.1732612 100.034019,43.7857826 C101.573037,45.2923384 102.697063,45.4739939 103.109275,45.551 C103.409571,45.6036538 103.658427,45.6286643 103.876698,45.6286643 C104.09775,45.6286643 104.20897,45.7089613 104.20897,45.8386212 C104.20897,46.0459454 104.016419,46.0972828 103.685537,46.0972828 L103.685537,46.0972828 L101.07741,46.0972828 C99.540477,46.0972828 98.8543836,45.9689393 98.1390948,45.6036538 C96.9559835,45.0047172 95.9139836,43.7857826 94.377051,41.782307 C93.2787456,40.3534155 92.0156943,38.5855655 91.6597877,38.1932949 C91.5200665,38.0392827 91.356711,38.0122976 91.1627697,38.0122976 L91.1627697,38.0122976 L88.7770834,37.9622766 C88.6373623,37.9622766 88.556032,38.0122976 88.556032,38.1676262 L88.556032,38.1676262 L88.5565738,39.6476977 C88.5594634,41.5742772 88.577764,43.1772853 88.6936678,44.0951235 C88.7770834,44.850705 88.9397438,45.4219983 89.7648632,45.5253313 C90.1763802,45.5773269 90.7790579,45.6286643 91.1092447,45.6286643 C91.3275155,45.6286643 91.4387363,45.7089613 91.4387363,45.8386212 C91.4387363,46.0196185 91.2461853,46.0972828 90.8881933,46.0972828 C89.2977358,46.0972828 87.2658707,46.0196185 86.8515732,46.0196185 C86.3309208,46.0196185 84.6035226,46.0972828 83.504522,46.0972828 C83.14653,46.0972828 82.9546741,46.0196185 82.9546741,45.8386212 C82.9546741,45.7089613 83.0631144,45.6286643 83.3946915,45.6286643 C83.8062085,45.6286643 84.1343098,45.5773269 84.3824713,45.5253313 C84.9295386,45.4219983 85.0685646,44.850705 85.1783952,44.0951235 C85.3160309,43.0051906 85.3160309,40.948403 85.3160309,38.5579222 L85.3160204,33.3377144 C85.3160151,33.2350108 85.3160073,33.1347845 85.3159954,33.0369577 L85.3150735,31.5184451 C85.312627,29.8663699 85.303928,29.237026 85.2729984,28.6849582 L85.264415,28.5420719 L85.264415,28.5420719 L85.2597254,28.4707778 C85.2055052,27.5868528 84.9858441,27.1722044 84.0807848,26.9879162 C83.8583432,26.937237 83.3946915,26.9115683 83.0088943,26.9115683 C82.7065127,26.9115683 82.5417669,26.8589145 82.5417669,26.6785754 C82.5417669,26.4949454 82.7329277,26.4429498 83.14653,26.4429498 C83.3179409,26.4429498 83.4930945,26.4440247 83.669677,26.4459217 L84.2013982,26.4538256 C85.3527237,26.4751979 86.4666756,26.5206141 86.9078787,26.5206141 C87.8407432,26.5206141 89.9282187,26.4429498 90.7790579,26.4429498 Z M58.2594842,35.8811366 C59.3278991,35.932474 59.9611626,36.1141295 60.5374254,36.5050837 C62.6221204,37.8826378 63.2004686,40.0671107 63.2004686,41.6796322 C63.2004686,44.3827447 61.1143833,45.0047172 59.8784421,45.0047172 C59.247264,45.0047172 58.6140005,44.9797067 57.8743822,44.6953764 C56.9950427,44.3557596 56.9137124,43.913468 56.9137124,42.1982717 L56.9137124,36.0371234 C56.9137124,35.9068053 56.9672375,35.8548097 57.0763729,35.8548097 C57.4899753,35.8548097 57.7659419,35.8548097 58.2594842,35.8811366 Z M166.727576,26.4429498 C167.111288,26.4429498 167.302449,26.4949454 167.302449,26.6785754 C167.302449,26.8589145 167.139093,26.9115683 166.810992,26.9115683 C166.50722,26.9115683 166.342474,26.937237 166.011592,26.9879162 C165.272669,27.1182343 165.051618,27.5605259 164.998093,28.4707778 C164.956266,29.0902493 164.94551,29.6508818 164.942745,31.5184451 L164.942071,32.2192073 C164.942024,32.303336 164.941984,32.3896311 164.941951,32.4781704 L164.941787,36.7657198 C164.941787,39.6531205 164.640101,42.7175695 162.333659,44.5927016 C160.383124,46.1742889 158.40687,46.4625683 156.621776,46.4625683 C155.164088,46.4625683 152.53024,46.384904 150.52479,44.6703659 C149.124103,43.4705182 148.080713,41.5486559 148.080713,37.7799629 L148.080713,37.7799629 L148.080065,31.7398109 C148.079984,31.6640371 148.079893,31.5902745 148.079791,31.5184451 L148.07903,31.1100473 C148.075816,29.7575031 148.066468,29.1890201 148.039274,28.6849582 L148.031009,28.5420719 L148.031009,28.5420719 L148.026493,28.4707778 C147.972273,27.5868528 147.752611,27.1722044 146.846162,26.9879162 C146.625806,26.937237 146.160069,26.9115683 145.774271,26.9115683 C145.472585,26.9115683 145.308534,26.8589145 145.308534,26.6785754 C145.308534,26.4949454 145.498305,26.4429498 145.913297,26.4429498 C146.1071,26.4429498 146.305845,26.4443305 146.506721,26.4467237 L147.112927,26.4565727 C148.225711,26.4788479 149.317859,26.5206141 149.921417,26.5206141 C150.5804,26.5206141 152.31336,26.4429498 153.299749,26.4429498 C153.711266,26.4429498 153.903817,26.4949454 153.903817,26.6785754 C153.903817,26.8589145 153.739071,26.9115683 153.464495,26.9115683 C153.162113,26.9115683 152.998758,26.937237 152.667181,26.9879162 C151.926172,27.1175761 151.707901,27.5605259 151.650206,28.4707778 C151.648637,28.4946036 151.647112,28.5183424 151.645632,28.5420719 L151.63726,28.6849582 C151.609718,29.1890201 151.60025,29.7575031 151.596995,31.1100473 L151.596224,31.5184451 C151.59612,31.5902745 151.596028,31.6640371 151.595946,31.7398109 L151.59529,37.6226598 C151.59529,41.3926692 152.3933,42.9775474 153.739071,44.0200919 C154.973622,44.9797067 156.235979,45.0850142 157.172319,45.0850142 C158.380455,45.0850142 159.862472,44.7210451 160.960082,43.6811333 C162.471295,42.2502673 162.554711,39.9117821 162.554711,37.2310474 L162.554022,31.7398109 C162.551696,29.6939204 162.541523,29.1140751 162.497015,28.4707778 C162.44349,27.5868528 162.224524,27.1722044 161.315989,26.9879162 C161.097718,26.937237 160.629896,26.9115683 160.328209,26.9115683 C160.029303,26.9115683 159.862472,26.8589145 159.862472,26.6785754 C159.862472,26.4949454 160.053633,26.4429498 160.43943,26.4429498 C161.838727,26.4429498 163.570991,26.5206141 163.598101,26.5206141 C163.799882,26.5206141 164.52346,26.4916098 165.300359,26.4690509 L165.726593,26.4575984 C166.081502,26.4489424 166.429829,26.4429498 166.727576,26.4429498 Z M263.380543,26.0776643 C265.163552,26.0776643 266.316772,26.3396168 267.029976,26.5206141 C267.278832,26.5726097 267.416468,26.6496158 267.416468,26.8332458 C267.416468,27.1722044 267.308028,27.9258113 267.308028,29.9529812 C267.308028,30.526249 267.223917,30.732915 267.004256,30.732915 C266.813095,30.732915 266.730375,30.5769283 266.730375,30.2649547 C266.730375,30.0319618 266.590653,29.2250429 266.014391,28.5484421 C265.602179,28.0554712 264.80695,27.274221 263.021161,27.274221 C260.992076,27.274221 259.75544,28.3931135 259.75544,29.9529812 C259.75544,31.1488798 260.385228,32.0597898 262.66734,33.6973218 L262.66734,33.6973218 L263.435458,34.2429464 C266.757485,36.6084167 267.938511,38.4025937 267.938511,40.8713969 C267.938511,42.379269 267.333747,44.1754205 265.355407,45.3969878 C263.985306,46.2295754 262.447678,46.4625683 260.992076,46.4625683 C259.430814,46.4625683 258.212946,46.2835455 257.053469,45.8122943 C257.053469,45.8215087 257.058335,45.8287486 257.058335,45.8386212 C257.058335,46.0459454 256.867174,46.0972828 256.538378,46.0972828 L256.538378,46.0972828 L253.93025,46.0972828 C252.391927,46.0972828 251.703748,45.9689393 250.98846,45.6062865 C249.808129,45.0047172 248.765434,43.7857826 247.227111,41.782307 C246.129501,40.3534155 244.86784,38.5849073 244.510543,38.1932949 C244.374992,38.0392827 244.208161,38.0122976 244.017,38.0122976 L244.017,38.0122976 L241.629229,37.9622766 C241.488117,37.9622766 241.406787,38.0122976 241.406787,38.1676262 L241.406787,38.1676262 L241.406947,39.2832319 C241.408304,41.3712248 241.421202,43.1199204 241.543728,44.0951235 C241.629229,44.850705 241.792584,45.4219983 242.615618,45.5253313 C243.027135,45.5773269 243.631898,45.6306388 243.959305,45.6306388 C244.180356,45.6306388 244.290187,45.7089613 244.290187,45.8386212 C244.290187,46.0196185 244.099026,46.0972828 243.741034,46.0972828 C242.147101,46.0972828 240.118711,46.0196185 239.705109,46.0196185 C239.182371,46.0196185 237.454278,46.0972828 236.354582,46.0972828 C235.994505,46.0972828 235.806124,46.0196185 235.806124,45.8386212 C235.806124,45.7089613 235.91387,45.6306388 236.245447,45.6306388 C236.656268,45.6306388 236.98576,45.5773269 237.236007,45.5253313 C237.783769,45.4219983 237.91932,44.850705 238.02915,44.0951235 C238.143847,43.1868461 238.162963,41.6075989 238.166149,39.7226521 L238.16613,31.7397313 C238.166048,31.6639519 238.165956,31.5901834 238.165852,31.5183481 L238.165081,31.1099135 C238.161827,29.7572382 238.152359,29.1886104 238.124816,28.6848168 L238.116445,28.5420186 L238.116445,28.5420186 L238.111871,28.4707778 C238.056955,27.5868528 237.838685,27.1722044 236.93015,26.9879162 C236.711184,26.937237 236.245447,26.9115683 235.858259,26.9115683 C235.560048,26.9115683 235.395303,26.8589145 235.395303,26.6785754 C235.395303,26.4949454 235.585768,26.4429498 235.994505,26.4429498 C236.166243,26.4429498 236.341694,26.4440247 236.518547,26.4459217 L237.050998,26.4538256 C238.203729,26.4751979 239.317962,26.5206141 239.758634,26.5206141 C240.695669,26.5206141 242.778279,26.4429498 243.631898,26.4429498 C245.363467,26.4429498 247.199306,26.5976202 248.685494,27.5605259 C249.451527,28.0554712 250.552613,29.3816879 250.552613,31.1225529 C250.552613,33.0483642 249.699689,34.8155561 246.92612,36.9467171 C249.372977,39.8604447 251.266512,42.1732612 252.884079,43.7857826 C254.425183,45.2923384 255.550598,45.4739939 255.958639,45.551 C256.243643,45.6003629 256.477902,45.6233989 256.68505,45.6266898 C256.503621,45.4891319 256.459133,45.3107672 256.459133,44.9033587 C256.459133,43.4705182 256.572439,41.9113087 256.599549,41.4979767 C256.625964,41.1063643 256.70799,40.8194013 256.92626,40.8194013 C257.175812,40.8194013 257.200142,41.0556851 257.200142,41.2610348 C257.200142,41.5999934 257.312058,42.1462761 257.448998,42.5905423 C258.051676,44.5143791 259.672719,45.2153323 261.375788,45.2153323 C263.848365,45.2153323 265.052331,43.6297959 265.052331,42.2502673 C265.052331,40.9773626 264.641509,39.7821222 262.363568,38.0906201 L262.363568,38.0906201 L261.102602,37.1540413 C258.079481,34.9188891 257.035396,33.0983853 257.035396,30.9915766 C257.035396,28.1318192 259.564279,26.0776643 263.380543,26.0776643 Z M233.101373,26.2329929 C233.239704,26.2329929 233.265424,26.3396168 233.265424,26.4699348 C233.265424,26.6496158 233.129874,26.9629057 233.045068,28.1581461 C233.020738,28.4194404 232.963042,29.562027 232.907432,29.8759751 C232.879627,30.0056349 232.826102,30.1616217 232.634941,30.1616217 C232.444475,30.1616217 232.387475,30.0319618 232.387475,29.7956781 C232.387475,29.6140226 232.358974,29.1730473 232.222034,28.861732 C232.030178,28.3931135 231.756297,28.0811399 230.383415,27.9258113 C230.172895,27.9021172 229.473361,27.8788228 228.717451,27.8603665 L228.209907,27.8488278 C227.450307,27.8327409 226.730472,27.8224783 226.48304,27.8224783 C226.344014,27.8224783 226.292575,27.9001426 226.292575,28.0811399 L226.292575,28.0811399 L226.292575,34.6575948 C226.292575,34.8405666 226.316904,34.9438997 226.48304,34.9438997 L226.48304,34.9438997 L227.336475,34.9430872 C228.509866,34.9406499 230.404964,34.9309008 230.878347,34.8919041 C231.535245,34.8405666 231.948848,34.7629023 232.194924,34.5022662 C232.387475,34.294942 232.498,34.1652822 232.634941,34.1652822 C232.746857,34.1652822 232.826102,34.2172777 232.826102,34.3719482 C232.826102,34.5272768 232.716966,34.9438997 232.605746,36.2720908 C232.581416,36.7913885 232.498,37.8306422 232.498,38.0122976 C232.498,38.22028 232.498,38.507243 232.251924,38.507243 C232.058678,38.507243 232.002373,38.4025937 232.002373,38.2742501 C231.975263,38.0122976 231.975263,37.6746554 231.893932,37.3376713 C231.756297,36.8177154 231.3705,36.4267612 230.356305,36.3227701 C230.109021,36.2987641 229.369026,36.2802222 228.588395,36.2673543 L228.066916,36.2596186 C227.376814,36.2504313 226.733982,36.2457639 226.45593,36.2457639 C226.316904,36.2457639 226.292575,36.3484388 226.292575,36.5050837 L226.292575,36.5050837 L226.292277,38.7407782 C226.289398,39.7355925 226.267159,41.8809505 226.292575,42.5905423 C226.344014,44.3827447 226.787507,44.7736989 229.585406,44.7736989 C230.300694,44.7736989 231.45461,44.7736989 232.166423,44.4597508 C232.879627,44.1497518 233.211899,43.6047853 233.40445,42.5372303 C233.456585,42.2502673 233.51289,42.1462761 233.706136,42.1462761 C233.925798,42.1462761 233.925798,42.3542585 233.925798,42.6155528 C233.925798,43.213173 233.706136,44.9797067 233.569891,45.4996626 C233.375255,46.1742889 233.129874,46.1742889 232.083703,46.1742889 C230.028203,46.1742889 228.514905,46.1242679 227.332489,46.0972828 C226.151463,46.0459454 225.302709,46.0196185 224.479675,46.0196185 L224.479675,46.0196185 L224.236269,46.0199074 C223.906622,46.0209186 223.428021,46.0254689 222.914938,46.0459454 C222.280979,46.0459454 221.569166,46.0972828 221.021403,46.0972828 C220.662716,46.0972828 220.46947,46.0196185 220.46947,45.8386212 C220.46947,45.7089613 220.581386,45.6306388 220.908792,45.6306388 C221.320309,45.6306388 221.648411,45.5773269 221.897267,45.5253313 C222.449896,45.4219983 222.584056,44.850705 222.695972,44.0951235 C222.817079,43.1262943 222.830535,41.3940505 222.83203,39.341695 L222.832057,32.4781359 C222.832025,32.3895924 222.831987,32.3032927 222.831941,32.2191592 L222.831284,31.5183481 C222.83118,31.4465128 222.831064,31.3766107 222.830936,31.3085642 L222.830004,30.9219302 C222.825762,29.5204252 222.813389,29.0183393 222.777302,28.4707778 C222.722387,27.5868528 222.50203,27.1722044 221.594886,26.9879162 C221.375225,26.937237 220.908792,26.9115683 220.525081,26.9115683 C220.445141,26.9115683 220.376323,26.9069611 220.317237,26.8977466 C220.257456,26.9069611 220.194894,26.9115683 220.123991,26.9115683 C219.848024,26.9115683 219.273151,26.9115683 218.777524,27.2215673 C218.420922,27.4571929 218.0101,27.9001426 217.267006,29.562027 C216.199286,32.0058197 215.455497,33.4116752 213.97209,36.6084167 C212.216886,40.4060693 210.925335,43.2388417 210.317791,44.5400478 C209.608063,46.0459454 209.441232,46.4625683 209.058215,46.4625683 C208.703004,46.4625683 208.533392,46.0972828 208.01413,44.8763737 L208.01413,44.8763737 L201.093415,28.9907337 C200.460847,27.5605259 199.995805,27.274221 199.010111,27.0149013 C198.594423,26.9115683 198.158576,26.9115683 197.934049,26.9115683 C197.922927,26.9115683 197.917366,26.9089356 197.904854,26.9089356 C197.886085,26.9089356 197.875658,26.9115683 197.854109,26.9115683 C197.578143,26.9115683 197.359872,26.937237 197.031771,26.9879162 C196.287981,27.1182343 196.06832,27.5605259 196.013405,28.4707778 C196.011876,28.4946036 196.01039,28.5183424 196.008947,28.5420719 L196.000787,28.6849582 C195.971385,29.237026 195.963116,29.8663699 195.96079,31.5184451 L195.960036,32.4781704 C195.960005,32.5667097 195.95998,32.6574932 195.95996,32.7505985 L195.959896,38.9523857 C195.959912,39.0825265 195.959943,39.2112977 195.960006,39.3386315 L195.960892,40.0848422 C195.964686,41.9045319 195.98271,43.3702683 196.06832,44.2530848 C196.151041,44.954038 196.344982,45.4219983 197.167321,45.5253313 C197.552423,45.5773269 198.155101,45.6306388 198.568008,45.6306388 C198.872475,45.6306388 199.010111,45.7089613 199.010111,45.8386212 C199.010111,46.0196185 198.786974,46.0972828 198.485983,46.0972828 C196.673083,46.0972828 194.942905,46.0196185 194.201896,46.0196185 C193.571413,46.0196185 191.840539,46.0972828 190.742929,46.0972828 C190.386327,46.0972828 190.191691,46.0196185 190.191691,45.8386212 C190.191691,45.7089613 190.304997,45.6306388 190.629623,45.6306388 C191.045311,45.6306388 191.374802,45.5773269 191.620878,45.5253313 C192.170031,45.4219983 192.334777,44.9797067 192.416802,44.2267579 C192.532121,43.3072569 192.550329,41.7058533 192.553204,39.7161491 L192.553079,31.7398109 C192.552996,31.6640371 192.552902,31.5902745 192.552797,31.5184451 L192.552016,31.1100473 C192.54825,29.5642825 192.536265,29.0425976 192.498132,28.4707778 C192.442522,27.5868528 192.170031,27.1445612 191.569439,27.0149013 C191.263581,26.937237 190.906285,26.9115683 190.578878,26.9115683 C190.304997,26.9115683 190.13608,26.8589145 190.13608,26.6496158 C190.13608,26.4949454 190.356437,26.4429498 190.796454,26.4429498 C191.840539,26.4429498 193.571413,26.5206141 194.366642,26.5206141 C195.054821,26.5206141 196.673083,26.4429498 197.717169,26.4429498 C197.815877,26.4429498 197.904854,26.4482151 197.981318,26.4567714 C198.080722,26.4482151 198.194723,26.4429498 198.320542,26.4429498 C199.777534,26.4429498 201.341577,26.5206141 202.303637,26.5206141 C202.98695,26.5206141 204.305611,26.4429498 205.681969,26.4429498 C206.007985,26.4429498 206.312452,26.4949454 206.312452,26.6785754 C206.312452,26.8589145 206.148401,26.9115683 205.898154,26.9115683 C205.460222,26.9115683 205.050791,26.937237 204.829044,27.0925656 C204.637883,27.2215673 204.556553,27.4025646 204.556553,27.637532 C204.556553,27.9778069 204.801239,28.7037707 205.187036,29.6410076 L205.187036,29.6410076 L209.910445,41.4426902 L210.01958,41.4426902 C210.502727,40.2738665 211.385248,38.1818871 212.304974,36.0002417 L212.766261,34.9058056 C213.944459,32.1095403 215.084851,29.3936845 215.431863,28.4971047 C215.566718,28.1581461 215.676549,27.7685082 215.676549,27.534199 C215.676549,27.3281911 215.566718,27.1182343 215.317166,27.0399118 C214.990455,26.937237 214.576853,26.9115683 214.223032,26.9115683 C213.97209,26.9115683 213.751733,26.8858995 213.751733,26.7022696 C213.751733,26.4949454 214.001285,26.4429498 214.519852,26.4429498 C215.894819,26.4429498 217.04804,26.5206141 217.404642,26.5206141 C217.872464,26.5206141 219.161235,26.4429498 219.98844,26.4429498 C220.117039,26.4429498 220.219223,26.4541387 220.310981,26.4712512 C220.402738,26.4541387 220.512568,26.4429498 220.662716,26.4429498 C221.40303,26.4429498 222.199649,26.4699348 222.888523,26.4699348 C223.601031,26.4949454 224.230819,26.5206141 224.617311,26.5206141 L224.617311,26.5206141 L226.049586,26.5201729 C226.133798,26.5201178 226.220224,26.5200557 226.308543,26.5199859 L227.145916,26.5191252 C228.985192,26.5167678 231.161759,26.5106778 231.48172,26.4949454 C232.002373,26.4429498 232.444475,26.3889797 232.662746,26.3396168 C232.798297,26.3132899 232.963042,26.2329929 233.101373,26.2329929 Z M169.184861,26 C169.487243,26 169.732623,26.3396168 170.201141,26.8082352 C170.299989,26.909133 170.74499,27.361238 171.427757,28.0465708 L171.865082,28.484814 C173.205881,29.8262489 175.195905,31.7975116 177.2707,33.7842007 L177.750747,34.2426616 C177.83092,34.3190241 177.911154,34.3953396 177.991417,34.471573 L178.473088,34.9277094 L178.473088,34.9277094 L178.713704,35.1545147 C180.579433,36.9203902 184.289342,40.6653891 184.754384,41.0813538 L184.754384,41.0813538 L184.892019,41.0813538 L184.616748,29.4080147 C184.591723,27.8224783 184.342867,27.327533 183.684579,27.0668969 C183.271671,26.9115683 182.612688,26.9115683 182.228976,26.9115683 C181.897399,26.9115683 181.789654,26.8325876 181.789654,26.6785754 C181.789654,26.4699348 182.092036,26.4429498 182.504248,26.4429498 C183.930655,26.4429498 185.250011,26.5206141 185.826274,26.5206141 C186.125875,26.5206141 187.172046,26.4429498 188.517123,26.4429498 C188.873029,26.4429498 189.14691,26.4699348 189.14691,26.6785754 C189.14691,26.8325876 188.983555,26.9115683 188.653368,26.9115683 C188.378792,26.9115683 188.162606,26.9115683 187.830334,26.9879162 C187.060825,27.1958986 186.841164,27.7428395 186.815444,29.2000324 L186.815444,29.2000324 L186.512368,45.6062865 C186.512368,46.1742889 186.402537,46.4105727 186.155766,46.4105727 C185.851994,46.4105727 185.523198,46.1242679 185.223596,45.8386212 C184.048603,44.7801395 182.052927,42.8709647 179.998711,40.9162115 L179.348955,40.298345 C178.590709,39.5779243 177.835407,38.8628204 177.121161,38.1932949 C176.884908,37.9717335 176.648304,37.7473948 176.412635,37.5218561 L175.942922,37.0696461 C173.370539,34.5788316 171.014846,32.0700435 170.586243,31.6425088 L170.586243,31.6425088 L170.504913,31.6425088 L170.805209,42.5635572 C170.860124,44.5927016 171.219507,45.2673279 171.765879,45.4483252 C172.233701,45.6062865 172.755744,45.6306388 173.194371,45.6306388 C173.497448,45.6306388 173.662889,45.6839508 173.662889,45.8386212 C173.662889,46.0459454 173.414032,46.0972828 173.031015,46.0972828 C171.245226,46.0972828 170.147616,46.0196185 169.624878,46.0196185 C169.377412,46.0196185 168.087251,46.0972828 166.658758,46.0972828 C166.303547,46.0972828 166.056081,46.0709559 166.056081,45.8386212 C166.056081,45.6839508 166.218741,45.6306388 166.495403,45.6306388 C166.852005,45.6306388 167.346242,45.6062865 167.731344,45.4996626 C168.445243,45.2923384 168.555768,44.5400478 168.580793,42.275936 L168.580793,42.275936 L168.826869,26.8858995 C168.826869,26.3646273 168.91237,26 169.184861,26 Z M101.119117,26.0776643 C101.339474,26.0776643 101.616135,26.3396168 102.300143,26.3896378 C103.097457,26.4699348 104.142933,26.5206141 105.047297,26.5206141 L105.047297,26.5206141 L115.921216,26.5206141 C116.106816,26.5206141 116.272257,26.5153487 116.437003,26.5107415 L116.437003,26.5107415 L116.521809,26.508767 L116.521809,26.508767 L116.533626,26.5067925 C117.202341,26.4850728 117.83769,26.4732257 118.377806,26.4699348 C118.511966,26.4699348 118.633614,26.4673021 118.755262,26.4673021 L118.755262,26.4673021 L119.064608,26.4676796 C119.596875,26.4689846 119.929336,26.4732257 119.929336,26.4732257 C120.689809,26.4949454 121.584441,26.5206141 122.103703,26.5206141 C122.678576,26.5206141 123.806077,26.4429498 125.042713,26.4429498 C125.314509,26.4429498 125.452145,26.5206141 125.452145,26.6785754 C125.452145,26.8325876 125.259593,26.8589145 124.848772,26.9629057 C124.60061,27.0149013 124.461584,27.2215673 124.461584,27.4321823 C124.461584,27.637532 124.60061,27.9508219 124.793856,28.3154492 C125.178958,29.095383 129.024418,35.3598644 129.46235,36.0878026 C129.736231,35.4651719 133.195893,29.7476315 133.579605,28.9393963 C133.854181,28.3681029 133.964707,27.9258113 133.964707,27.5868528 C133.964707,27.327533 133.854181,27.0399118 133.39053,26.937237 C133.142368,26.8858995 132.893512,26.8325876 132.893512,26.6785754 C132.893512,26.4949454 133.032538,26.4429498 133.360639,26.4429498 C134.266393,26.4429498 135.146428,26.5206141 135.939571,26.5206141 C136.547115,26.5206141 138.358624,26.4429498 138.879972,26.4429498 C139.182353,26.4429498 139.374904,26.4949454 139.374904,26.6496158 C139.374904,26.8325876 139.154548,26.9115683 138.853557,26.9115683 C138.57759,26.9115683 138.054852,27.0149013 137.645421,27.2215673 C137.068463,27.4835197 136.764691,27.7968096 136.162013,28.4971047 C135.255564,29.5376746 131.41219,35.645511 130.915867,36.7657198 C130.503655,37.6996659 130.503655,38.507243 130.503655,39.3661575 L130.503655,39.3661575 L130.503904,41.7147897 C130.505399,42.2237658 130.515869,43.1608953 130.589156,44.0951235 C130.642681,44.850705 130.890147,45.4219983 131.711095,45.5253313 C132.098283,45.5773269 132.702351,45.6286643 133.086063,45.6286643 C133.39053,45.6286643 133.523995,45.7089613 133.523995,45.8386212 C133.523995,46.0196185 133.305029,46.0972828 132.947037,46.0972828 C131.216858,46.0972828 129.48946,46.0196185 128.747756,46.0196185 C128.404014,46.0196185 127.799772,46.0390346 127.154431,46.0584507 L126.596333,46.0746402 C126.131393,46.0873766 125.677466,46.0972828 125.314509,46.0972828 C124.928712,46.0972828 124.710441,46.0459454 124.710441,45.8386212 C124.710441,45.7089613 124.848772,45.6286643 125.151153,45.6286643 C125.533475,45.6286643 125.865052,45.5773269 126.111823,45.5253313 C126.65889,45.4219983 126.905661,44.850705 126.962662,44.0951235 C127.03297,43.1608953 127.043013,42.2237658 127.044448,41.7147897 L127.044687,39.3661575 C127.044687,37.9622766 126.770111,37.3883506 126.414204,36.6360599 C126.260164,36.3006555 123.875033,32.57477 122.434568,30.4049927 L122.176327,30.0176027 C121.930706,29.6508638 121.725274,29.3497007 121.580965,29.1467205 C121.103411,28.4780177 120.630723,27.9699089 120.206693,27.6191032 C119.899446,27.3940084 118.791408,26.6496158 118.755262,27.6803132 C118.750813,27.8295866 118.745724,27.9867317 118.74043,28.1462621 L118.724365,28.6265223 C118.708549,29.1029652 118.694785,29.5514963 118.694785,29.8239795 C118.666285,30.0832992 118.612065,30.2379697 118.446624,30.2379697 C118.229048,30.2379697 118.174133,30.1083098 118.145633,29.7180138 L118.145633,29.7180138 L118.117827,29.4343416 C118.063607,28.7557663 117.319123,28.027828 114.878521,27.9778069 L114.878521,27.9778069 L111.418859,27.9001426 L111.418883,38.9532398 C111.41928,41.1746192 111.426428,43.0672051 111.555105,44.1214504 C111.636435,44.850705 111.803266,45.4219983 112.62491,45.5253313 C113.010012,45.5773269 113.614775,45.6286643 114.028377,45.6286643 C114.327978,45.6286643 114.467004,45.7089613 114.467004,45.8386212 C114.467004,46.0196185 114.246648,46.0972828 113.946352,46.0972828 C112.131367,46.0972828 110.401884,46.0196185 109.633765,46.0196185 C109.003282,46.0196185 107.270323,46.0972828 106.173408,46.0972828 C105.816806,46.0972828 105.625645,46.0196185 105.625645,45.8386212 C105.625645,45.7089613 105.733391,45.6286643 106.062187,45.6286643 C106.475094,45.6286643 106.803196,45.5773269 107.052052,45.5253313 C107.599815,45.4219983 107.768731,44.850705 107.848671,44.0951235 C107.970396,43.1262943 107.983921,41.3940505 107.985424,39.341695 L107.985612,27.9001426 L103.894076,28.0028175 C102.300143,28.0548131 101.643941,28.1864475 101.230338,28.7557663 C100.957152,29.1467205 100.818821,29.4593522 100.764601,29.6666764 C100.710381,29.8759751 100.62627,29.9793081 100.460829,29.9793081 C100.269668,29.9793081 100.214753,29.8496482 100.214753,29.562027 C100.214753,29.1467205 100.737491,26.7825665 100.791016,26.5726097 C100.872346,26.2329929 100.957152,26.0776643 101.119117,26.0776643 Z M90.2584055,27.6658334 C91.8780585,27.6658334 94.4604666,28.7307557 94.4604666,32.4224426 C94.4604666,34.5575527 93.6631525,35.7521349 92.8380331,36.3227701 C92.3451859,36.6597541 91.9864988,36.7657198 90.8881933,36.7657198 C90.2041854,36.7657198 89.3797611,36.686081 88.8041935,36.5050837 C88.6109473,36.4267612 88.556032,36.3227701 88.556032,36.0371234 L88.556032,28.1318192 C88.556032,27.9258113 88.6109473,27.8224783 88.8041935,27.7685082 C89.0773796,27.6901858 89.5723122,27.6658334 90.2584055,27.6658334 Z M277.593867,26.4429498 C277.946993,26.4429498 278.169435,26.4949454 278.169435,26.6496158 C278.169435,26.8589145 278.006079,26.9115683 277.729417,26.9115683 C277.456926,26.9115683 277.234485,26.937237 276.906383,26.9879162 C276.163289,27.1182343 275.943628,27.5605259 275.888018,28.4707778 C275.886449,28.4945848 275.884925,28.5183059 275.883444,28.5420186 L275.875073,28.6848168 C275.84753,29.1886104 275.838062,29.7572382 275.834807,31.1099135 L275.834036,31.5183481 C275.833933,31.5901834 275.83384,31.6639519 275.833758,31.7397313 L275.833538,39.7160316 C275.835858,41.7060429 275.850554,43.3114138 275.943628,44.2530848 C276.027739,44.954038 276.2189,45.4219983 277.045409,45.5253313 C277.429121,45.5773269 278.029713,45.6306388 278.443316,45.6306388 C278.745697,45.6306388 278.881943,45.7083031 278.881943,45.8386212 C278.881943,46.0196185 278.663672,46.0972828 278.3599,46.0972828 C276.547001,46.0972828 274.816822,46.0196185 274.075814,46.0196185 C273.445331,46.0196185 271.715847,46.0972828 270.616847,46.0972828 C270.25816,46.0972828 270.069084,46.0196185 270.069084,45.8386212 C270.069084,45.7083031 270.174744,45.6306388 270.508406,45.6306388 C270.920619,45.6306388 271.249415,45.5773269 271.495491,45.5253313 C272.046034,45.4219983 272.211475,44.9797067 272.29211,44.2267579 C272.418368,43.2497881 272.431658,41.5024873 272.433057,39.3384344 L272.433051,32.4781359 C272.433017,32.3895924 272.432976,32.3032927 272.432927,32.2191592 L272.432229,31.5183481 C272.429361,29.6506304 272.418207,29.0897604 272.374831,28.4707778 C272.319915,27.5868528 272.046034,27.1445612 271.443356,27.0149013 C271.139584,26.937237 270.781593,26.9115683 270.454881,26.9115683 C270.174744,26.9115683 270.009998,26.8589145 270.009998,26.6496158 C270.009998,26.4949454 270.234525,26.4429498 270.671762,26.4429498 C271.715847,26.4429498 273.445331,26.5206141 274.242645,26.5206141 C274.929433,26.5206141 276.547001,26.4429498 277.593867,26.4429498 Z M279.788392,26.0776643 C280.005273,26.0776643 280.283325,26.3396168 280.970809,26.3889797 C281.763952,26.4699348 282.809428,26.5206141 283.716572,26.5206141 L283.716572,26.5206141 L294.589797,26.5206141 C294.775396,26.5206141 294.941532,26.5153487 295.103498,26.5107415 L295.103498,26.5107415 L295.189694,26.508767 C295.192474,26.5067925 295.195255,26.5067925 295.200121,26.5067925 C295.870921,26.4850728 296.509051,26.474542 297.046386,26.4699348 L297.046386,26.4699348 L298.000196,26.4698102 C298.289546,26.4707916 298.488277,26.4731089 298.562313,26.4740903 L298.594441,26.474542 C299.357693,26.4949454 300.253021,26.5206141 300.768807,26.5206141 C301.345765,26.5206141 302.471181,26.4429498 303.707122,26.4429498 C303.981699,26.4429498 304.12281,26.5206141 304.12281,26.6785754 C304.12281,26.8332458 303.926783,26.8589145 303.515961,26.9629057 C303.2678,27.0149013 303.130859,27.2215673 303.130859,27.4321823 C303.130859,27.637532 303.2678,27.9508219 303.462436,28.3161074 L303.502278,28.393508 C304.057157,29.4391378 307.703811,35.3800849 308.13093,36.0878026 C308.403421,35.4651719 311.863083,29.7476315 312.248185,28.9393963 C312.521371,28.3681029 312.631897,27.9258113 312.631897,27.5868528 C312.631897,27.327533 312.521371,27.0399118 312.056329,26.937237 C311.808863,26.8858995 311.561397,26.8332458 311.561397,26.6785754 C311.561397,26.4949454 311.699727,26.4429498 312.027134,26.4429498 C312.933583,26.4429498 313.812923,26.5206141 314.608152,26.5206141 C315.21361,26.5206141 317.027899,26.4429498 317.547161,26.4429498 C317.849543,26.4429498 318.040009,26.4949454 318.040009,26.6496158 C318.040009,26.8345621 317.823128,26.9115683 317.518661,26.9115683 C317.246865,26.9115683 316.724127,27.0149013 316.30983,27.2215673 C315.733567,27.4835197 315.43049,27.7968096 314.831288,28.4971047 C313.922058,29.5376746 310.079379,35.6481437 309.585142,36.7657198 C309.170844,37.6996659 309.170844,38.507243 309.170844,39.3661575 L309.170844,39.3661575 L309.170874,41.596715 C309.171266,42.0675574 309.176753,43.083043 309.253565,44.0951235 C309.311956,44.850705 309.558032,45.4219983 310.380371,45.5253313 C310.763387,45.5773269 311.369541,45.6306388 311.753252,45.6306388 C312.056329,45.6306388 312.191879,45.7089613 312.191879,45.8386212 C312.191879,46.0196185 311.972218,46.0972828 311.615617,46.0972828 C309.888219,46.0972828 308.157345,46.0196185 307.414946,46.0196185 C306.729548,46.0196185 304.998674,46.0972828 303.981699,46.0972828 C303.597292,46.0972828 303.379021,46.0459454 303.379021,45.8386212 C303.379021,45.7089613 303.515961,45.6306388 303.818343,45.6306388 C304.202055,45.6306388 304.530156,45.5773269 304.779013,45.5253313 C305.328861,45.4219983 305.576327,44.850705 305.629852,44.0951235 C305.700755,43.1608953 305.710884,42.2237658 305.712331,41.7147897 L305.712572,39.3661575 C305.712572,37.9622766 305.438691,37.3883506 305.080004,36.6360599 C304.925407,36.3006555 302.5415,32.57477 301.101547,30.4049927 L300.843392,30.0176027 C300.597849,29.6508638 300.392464,29.3497007 300.248155,29.1467205 C299.769906,28.4760432 299.293742,27.9672762 298.869017,27.6171287 C298.559684,27.388743 297.456513,26.6522485 297.423842,27.6803132 C297.398122,28.4266803 297.36128,29.3698408 297.36128,29.8239795 C297.33417,30.0832992 297.280645,30.2379697 297.114509,30.2379697 C296.895543,30.2379697 296.840628,30.1083098 296.812822,29.7180138 L296.812822,29.7180138 L296.785017,29.4343416 C296.730797,28.7557663 295.991874,28.027828 293.544321,27.9778069 L293.544321,27.9778069 L290.086049,27.9001426 L290.086673,39.722774 C290.089795,41.6083302 290.108525,43.1912339 290.220904,44.1214504 C290.30432,44.850705 290.471151,45.4219983 291.292795,45.5253313 C291.678592,45.5773269 292.28266,45.6306388 292.694872,45.6306388 C292.996558,45.6306388 293.132804,45.7089613 293.132804,45.8386212 C293.132804,46.0196185 292.913838,46.0972828 292.615627,46.0972828 C290.797862,46.0972828 289.069074,46.0196185 288.300955,46.0196185 C287.668387,46.0196185 285.939598,46.0972828 284.839207,46.0972828 C284.482606,46.0972828 284.292835,46.0196185 284.292835,45.8386212 C284.292835,45.7089613 284.402666,45.6306388 284.728682,45.6306388 C285.142979,45.6306388 285.471776,45.5773269 285.720632,45.5253313 C286.269785,45.4219983 286.433836,44.850705 286.515861,44.0951235 C286.638204,43.1262943 286.651798,41.3940505 286.653308,39.341695 L286.653497,27.9001426 L282.563352,28.0028175 C280.970809,28.0554712 280.309045,28.1864475 279.900308,28.7557663 C279.622256,29.1467205 279.485316,29.4593522 279.431791,29.6666764 C279.37618,29.8759751 279.291375,29.9793081 279.130104,29.9793081 C278.936858,29.9793081 278.881943,29.8496482 278.881943,29.562027 C278.881943,29.1467205 279.403986,26.7825665 279.457511,26.5726097 C279.543012,26.2329929 279.622256,26.0776643 279.788392,26.0776643 Z M243.109856,27.6658334 C244.730204,27.6658334 247.308441,28.7307557 247.308441,32.4224426 C247.308441,34.5575527 246.515298,35.7521349 245.688093,36.3227701 C245.195941,36.6597541 244.836559,36.7657198 243.741034,36.7657198 C243.05494,36.7657198 242.230516,36.686081 241.654949,36.5050837 C241.460312,36.4267612 241.406787,36.3227701 241.406787,36.0371234 L241.406787,28.1318192 C241.406787,27.9258113 241.460312,27.8224783 241.654949,27.7685082 C241.929525,27.6901858 242.424458,27.6658334 243.109856,27.6658334 Z" id="Wordmark"></path>
        </g>
    </g>
</svg>